<?xml version="1.0" encoding="UTF-8" standalone="no"?><svg xmlns="http://www.w3.org/2000/svg" xmlns:xlink="http://www.w3.org/1999/xlink" contentStyleType="text/css" height="1485px" preserveAspectRatio="none" style="width:1441px;height:1485px;background:#FFFFFF;" version="1.1" viewBox="0 0 1441 1485" width="1441px" zoomAndPan="magnify"><defs/><g><text fill="#888888" font-family="DejaVu Serif Condensed" font-size="10" font-weight="bold" lengthAdjust="spacing" textLength="37" x="1391" y="19.3896">FV2210</text><text fill="#888888" font-family="DejaVu Serif Condensed" font-size="10" lengthAdjust="spacing" textLength="54" x="1374" y="31.0303">2022-12-12</text><text fill="#000000" font-family="DejaVu Serif Condensed" font-size="14" font-weight="bold" lengthAdjust="spacing" textLength="767" x="335.5" y="57.5342">7.17 AD: Aktivierung eines MaBiS-ZP für Bilanzierungsgebietssummenzeitreihen vom ÜNB an BIKO und NB</text><text fill="#000000" font-family="DejaVu Serif Condensed" font-size="14" font-weight="bold" lengthAdjust="spacing" textLength="4" x="717" y="73.9814"> </text><text fill="#000000" font-family="DejaVu Serif Condensed" font-size="14" font-weight="bold" lengthAdjust="spacing" textLength="315" x="561.5" y="90.4287">7.17.1 E_0015_MaBiS-ZP Aktivierung prüfen</text><text fill="#000000" font-family="DejaVu Serif Condensed" font-size="14" font-weight="bold" lengthAdjust="spacing" textLength="4" x="717" y="106.876"> </text><text fill="#000000" font-family="DejaVu Serif Condensed" font-size="14" font-weight="bold" lengthAdjust="spacing" textLength="4" x="717" y="123.3232"> </text><text fill="#000000" font-family="DejaVu Serif Condensed" font-size="14" font-weight="bold" lengthAdjust="spacing" textLength="4" x="717" y="139.7705"> </text><path d="M767.5,162.4219 L767.5,170.4707 L747.5,174.4707 L767.5,178.4707 L767.5,186.5195 A0,0 0 0 0 767.5,186.5195 L920.5,186.5195 A0,0 0 0 0 920.5,186.5195 L920.5,172.4219 L910.5,162.4219 L767.5,162.4219 A0,0 0 0 0 767.5,162.4219 " fill="#F3F1F6" style="stroke:#181818;stroke-width:0.5;"/><path d="M910.5,162.4219 L910.5,172.4219 L920.5,172.4219 L910.5,162.4219 " fill="#F3F1F6" style="stroke:#181818;stroke-width:0.5;"/><text fill="#000000" font-family="DejaVu Serif Condensed" font-size="12" font-style="italic" font-weight="bold" lengthAdjust="spacing" textLength="132" x="773.5" y="178.6895">Prüfende Rolle: BIKO</text><rect fill="#7A8DA1" height="38.7969" rx="12.5" ry="12.5" style="stroke:none;stroke-width:0.5;" width="78" x="669.5" y="155.0723"/><text fill="#000000" font-family="DejaVu Serif Condensed" font-size="16" font-weight="bold" lengthAdjust="spacing" textLength="58" x="679.5" y="180.0957">E_0015</text><path d="M535.5,265.5254 L535.5,303.4629 A0,0 0 0 0 535.5,303.4629 L664.5,303.4629 A0,0 0 0 0 664.5,303.4629 L664.5,288.4941 L684.5,284.4941 L664.5,280.4941 L664.5,275.5254 L654.5,265.5254 L535.5,265.5254 A0,0 0 0 0 535.5,265.5254 " fill="#F3F1F6" style="stroke:#181818;stroke-width:0.5;"/><path d="M654.5,265.5254 L654.5,275.5254 L664.5,275.5254 L654.5,265.5254 " fill="#F3F1F6" style="stroke:#181818;stroke-width:0.5;"/><text fill="#000000" font-family="DejaVu Serif Condensed" font-size="12" lengthAdjust="spacing" textLength="101" x="541.5" y="281.6641">Cluster Ablehnung</text><text fill="#000000" font-family="DejaVu Serif Condensed" font-size="12" lengthAdjust="spacing" textLength="108" x="541.5" y="295.6328">Fristüberschreitung</text><rect fill="#7A8DA1" height="38.625" rx="12.5" ry="12.5" style="stroke:none;stroke-width:0.5;" width="48" x="684.5" y="265.1816"/><text fill="#000000" font-family="DejaVu Serif Condensed" font-size="16" lengthAdjust="spacing" textLength="28" x="694.5" y="290.0332">A01</text><polygon fill="#7AAB8A" points="417.5,213.8691,999.5,213.8691,1011.5,225.8691,999.5,237.8691,417.5,237.8691,405.5,225.8691,417.5,213.8691" style="stroke:#7AAB8A;stroke-width:0.5;"/><text fill="#000000" font-family="DejaVu Serif Condensed" font-size="16" lengthAdjust="spacing" textLength="13" x="712.5" y="252.7207">ja</text><text fill="#000000" font-family="DejaVu Serif Condensed" font-size="18" font-weight="bold" lengthAdjust="spacing" textLength="17" x="417.5" y="232.1973">1:</text><text fill="#000000" font-family="DejaVu Serif Condensed" font-size="18" lengthAdjust="spacing" textLength="554" x="445.5" y="232.1973">Erfolgt die Aktivierung nach Ablauf der Clearingfrist für die KBKA?</text><text fill="#000000" font-family="DejaVu Serif Condensed" font-size="16" lengthAdjust="spacing" textLength="32" x="1011.5" y="222.0957">nein</text><path d="M455.5,397.4629 L455.5,435.4004 A0,0 0 0 0 455.5,435.4004 L664.5,435.4004 A0,0 0 0 0 664.5,435.4004 L664.5,420.4316 L684.5,416.4316 L664.5,412.4316 L664.5,407.4629 L654.5,397.4629 L455.5,397.4629 A0,0 0 0 0 455.5,397.4629 " fill="#F3F1F6" style="stroke:#181818;stroke-width:0.5;"/><path d="M654.5,397.4629 L654.5,407.4629 L664.5,407.4629 L654.5,397.4629 " fill="#F3F1F6" style="stroke:#181818;stroke-width:0.5;"/><text fill="#000000" font-family="DejaVu Serif Condensed" font-size="12" lengthAdjust="spacing" textLength="101" x="461.5" y="413.6016">Cluster Ablehnung</text><text fill="#000000" font-family="DejaVu Serif Condensed" font-size="12" lengthAdjust="spacing" textLength="188" x="461.5" y="427.5703">Gewählter Zeitpunkt nicht zulässig</text><rect fill="#7A8DA1" height="38.625" rx="12.5" ry="12.5" style="stroke:none;stroke-width:0.5;" width="48" x="684.5" y="397.1191"/><text fill="#000000" font-family="DejaVu Serif Condensed" font-size="16" lengthAdjust="spacing" textLength="28" x="694.5" y="421.9707">A02</text><polygon fill="#7AAB8A" points="472.5,345.8066,944.5,345.8066,956.5,357.8066,944.5,369.8066,472.5,369.8066,460.5,357.8066,472.5,345.8066" style="stroke:#7AAB8A;stroke-width:0.5;"/><text fill="#000000" font-family="DejaVu Serif Condensed" font-size="16" lengthAdjust="spacing" textLength="32" x="712.5" y="384.6582">nein</text><text fill="#000000" font-family="DejaVu Serif Condensed" font-size="18" font-weight="bold" lengthAdjust="spacing" textLength="17" x="472.5" y="364.1348">2:</text><text fill="#000000" font-family="DejaVu Serif Condensed" font-size="18" lengthAdjust="spacing" textLength="444" x="500.5" y="364.1348">Erfolgt die Aktivierung zum Monatsersten 00:00 Uhr?</text><text fill="#000000" font-family="DejaVu Serif Condensed" font-size="16" lengthAdjust="spacing" textLength="13" x="956.5" y="354.0332">ja</text><path d="M542.5,529.4004 L542.5,567.3379 A0,0 0 0 0 542.5,567.3379 L664.5,567.3379 A0,0 0 0 0 664.5,567.3379 L664.5,552.3691 L684.5,548.3691 L664.5,544.3691 L664.5,539.4004 L654.5,529.4004 L542.5,529.4004 A0,0 0 0 0 542.5,529.4004 " fill="#F3F1F6" style="stroke:#181818;stroke-width:0.5;"/><path d="M654.5,529.4004 L654.5,539.4004 L664.5,539.4004 L654.5,529.4004 " fill="#F3F1F6" style="stroke:#181818;stroke-width:0.5;"/><text fill="#000000" font-family="DejaVu Serif Condensed" font-size="12" lengthAdjust="spacing" textLength="101" x="548.5" y="545.5391">Cluster Ablehnung</text><text fill="#000000" font-family="DejaVu Serif Condensed" font-size="12" lengthAdjust="spacing" textLength="91" x="548.5" y="559.5078">Regelzone falsch</text><rect fill="#7A8DA1" height="38.625" rx="12.5" ry="12.5" style="stroke:none;stroke-width:0.5;" width="48" x="684.5" y="529.0566"/><text fill="#000000" font-family="DejaVu Serif Condensed" font-size="16" lengthAdjust="spacing" textLength="28" x="694.5" y="553.9082">A03</text><polygon fill="#7AAB8A" points="541.5,477.7441,875.5,477.7441,887.5,489.7441,875.5,501.7441,541.5,501.7441,529.5,489.7441,541.5,477.7441" style="stroke:#7AAB8A;stroke-width:0.5;"/><text fill="#000000" font-family="DejaVu Serif Condensed" font-size="16" lengthAdjust="spacing" textLength="32" x="712.5" y="516.5957">nein</text><text fill="#000000" font-family="DejaVu Serif Condensed" font-size="18" font-weight="bold" lengthAdjust="spacing" textLength="17" x="541.5" y="496.0723">3:</text><text fill="#000000" font-family="DejaVu Serif Condensed" font-size="18" lengthAdjust="spacing" textLength="306" x="569.5" y="496.0723">Ist die richtige Regelzone angegeben</text><text fill="#000000" font-family="DejaVu Serif Condensed" font-size="16" lengthAdjust="spacing" textLength="13" x="887.5" y="485.9707">ja</text><path d="M472.5,661.3379 L472.5,699.2754 A0,0 0 0 0 472.5,699.2754 L664.5,699.2754 A0,0 0 0 0 664.5,699.2754 L664.5,684.3066 L684.5,680.3066 L664.5,676.3066 L664.5,671.3379 L654.5,661.3379 L472.5,661.3379 A0,0 0 0 0 472.5,661.3379 " fill="#F3F1F6" style="stroke:#181818;stroke-width:0.5;"/><path d="M654.5,661.3379 L654.5,671.3379 L664.5,671.3379 L654.5,661.3379 " fill="#F3F1F6" style="stroke:#181818;stroke-width:0.5;"/><text fill="#000000" font-family="DejaVu Serif Condensed" font-size="12" lengthAdjust="spacing" textLength="101" x="478.5" y="677.4766">Cluster Ablehnung</text><text fill="#000000" font-family="DejaVu Serif Condensed" font-size="12" lengthAdjust="spacing" textLength="171" x="478.5" y="691.4453">Bilanzierungsgebiet nicht gültig</text><rect fill="#7A8DA1" height="38.625" rx="12.5" ry="12.5" style="stroke:none;stroke-width:0.5;" width="48" x="684.5" y="660.9941"/><text fill="#000000" font-family="DejaVu Serif Condensed" font-size="16" lengthAdjust="spacing" textLength="28" x="694.5" y="685.8457">A04</text><polygon fill="#7AAB8A" points="338.5,609.6816,1078.5,609.6816,1090.5,621.6816,1078.5,633.6816,338.5,633.6816,326.5,621.6816,338.5,609.6816" style="stroke:#7AAB8A;stroke-width:0.5;"/><text fill="#000000" font-family="DejaVu Serif Condensed" font-size="16" lengthAdjust="spacing" textLength="32" x="712.5" y="648.5332">nein</text><text fill="#000000" font-family="DejaVu Serif Condensed" font-size="18" font-weight="bold" lengthAdjust="spacing" textLength="17" x="338.5" y="628.0098">4:</text><text fill="#000000" font-family="DejaVu Serif Condensed" font-size="18" lengthAdjust="spacing" textLength="712" x="366.5" y="628.0098">Ist das Bilanzierungsgebiet zum Aktivierungsbeginn in der Regelzone des BIKO gültig?</text><text fill="#000000" font-family="DejaVu Serif Condensed" font-size="16" lengthAdjust="spacing" textLength="13" x="1090.5" y="617.9082">ja</text><path d="M537.5,793.2754 L537.5,831.2129 A0,0 0 0 0 537.5,831.2129 L664.5,831.2129 A0,0 0 0 0 664.5,831.2129 L664.5,816.2441 L684.5,812.2441 L664.5,808.2441 L664.5,803.2754 L654.5,793.2754 L537.5,793.2754 A0,0 0 0 0 537.5,793.2754 " fill="#F3F1F6" style="stroke:#181818;stroke-width:0.5;"/><path d="M654.5,793.2754 L654.5,803.2754 L664.5,803.2754 L654.5,793.2754 " fill="#F3F1F6" style="stroke:#181818;stroke-width:0.5;"/><text fill="#000000" font-family="DejaVu Serif Condensed" font-size="12" lengthAdjust="spacing" textLength="101" x="543.5" y="809.4141">Cluster Ablehnung</text><text fill="#000000" font-family="DejaVu Serif Condensed" font-size="12" lengthAdjust="spacing" textLength="106" x="543.5" y="823.3828">Keine Berechtigung</text><rect fill="#7A8DA1" height="38.625" rx="12.5" ry="12.5" style="stroke:none;stroke-width:0.5;" width="48" x="684.5" y="792.9316"/><text fill="#000000" font-family="DejaVu Serif Condensed" font-size="16" lengthAdjust="spacing" textLength="28" x="694.5" y="817.7832">A05</text><polygon fill="#7AAB8A" points="381.5,741.6191,1035.5,741.6191,1047.5,753.6191,1035.5,765.6191,381.5,765.6191,369.5,753.6191,381.5,741.6191" style="stroke:#7AAB8A;stroke-width:0.5;"/><text fill="#000000" font-family="DejaVu Serif Condensed" font-size="16" lengthAdjust="spacing" textLength="32" x="712.5" y="780.4707">nein</text><text fill="#000000" font-family="DejaVu Serif Condensed" font-size="18" font-weight="bold" lengthAdjust="spacing" textLength="17" x="381.5" y="759.9473">5:</text><text fill="#000000" font-family="DejaVu Serif Condensed" font-size="18" lengthAdjust="spacing" textLength="626" x="409.5" y="759.9473">Ist der ÜNB zum Aktivierungsbeginn für das Bilanzierungsgebiet zuständig?</text><text fill="#000000" font-family="DejaVu Serif Condensed" font-size="16" lengthAdjust="spacing" textLength="13" x="1047.5" y="749.8457">ja</text><path d="M408.5,925.2129 L408.5,963.1504 A0,0 0 0 0 408.5,963.1504 L664.5,963.1504 A0,0 0 0 0 664.5,963.1504 L664.5,948.1816 L684.5,944.1816 L664.5,940.1816 L664.5,935.2129 L654.5,925.2129 L408.5,925.2129 A0,0 0 0 0 408.5,925.2129 " fill="#F3F1F6" style="stroke:#181818;stroke-width:0.5;"/><path d="M654.5,925.2129 L654.5,935.2129 L664.5,935.2129 L654.5,925.2129 " fill="#F3F1F6" style="stroke:#181818;stroke-width:0.5;"/><text fill="#000000" font-family="DejaVu Serif Condensed" font-size="12" lengthAdjust="spacing" textLength="101" x="414.5" y="941.3516">Cluster Ablehnung</text><text fill="#000000" font-family="DejaVu Serif Condensed" font-size="12" lengthAdjust="spacing" textLength="235" x="414.5" y="955.3203">Abweichender MaBiS-ZP bereits vorhanden</text><rect fill="#7A8DA1" height="38.625" rx="12.5" ry="12.5" style="stroke:none;stroke-width:0.5;" width="48" x="684.5" y="924.8691"/><text fill="#000000" font-family="DejaVu Serif Condensed" font-size="16" lengthAdjust="spacing" textLength="28" x="694.5" y="949.7207">A06</text><polygon fill="#7AAB8A" points="408.5,873.5566,1008.5,873.5566,1020.5,885.5566,1008.5,897.5566,408.5,897.5566,396.5,885.5566,408.5,873.5566" style="stroke:#7AAB8A;stroke-width:0.5;"/><text fill="#000000" font-family="DejaVu Serif Condensed" font-size="16" lengthAdjust="spacing" textLength="13" x="712.5" y="912.4082">ja</text><text fill="#000000" font-family="DejaVu Serif Condensed" font-size="18" font-weight="bold" lengthAdjust="spacing" textLength="17" x="408.5" y="891.8848">6:</text><text fill="#000000" font-family="DejaVu Serif Condensed" font-size="18" lengthAdjust="spacing" textLength="572" x="436.5" y="891.8848">Existiert bereits ein abweichendes Tupel unter der ID des MaBiS-ZP?</text><text fill="#000000" font-family="DejaVu Serif Condensed" font-size="16" lengthAdjust="spacing" textLength="32" x="1020.5" y="881.7832">nein</text><path d="M371.5,1057.1504 L371.5,1095.0879 A0,0 0 0 0 371.5,1095.0879 L664.5,1095.0879 A0,0 0 0 0 664.5,1095.0879 L664.5,1080.1191 L684.5,1076.1191 L664.5,1072.1191 L664.5,1067.1504 L654.5,1057.1504 L371.5,1057.1504 A0,0 0 0 0 371.5,1057.1504 " fill="#F3F1F6" style="stroke:#181818;stroke-width:0.5;"/><path d="M654.5,1057.1504 L654.5,1067.1504 L664.5,1067.1504 L654.5,1057.1504 " fill="#F3F1F6" style="stroke:#181818;stroke-width:0.5;"/><text fill="#000000" font-family="DejaVu Serif Condensed" font-size="12" lengthAdjust="spacing" textLength="101" x="377.5" y="1073.2891">Cluster Ablehnung</text><text fill="#000000" font-family="DejaVu Serif Condensed" font-size="12" lengthAdjust="spacing" textLength="272" x="377.5" y="1087.2578">Abweichende ID zum MaBiS-ZP bereits vorhanden</text><rect fill="#7A8DA1" height="38.625" rx="12.5" ry="12.5" style="stroke:none;stroke-width:0.5;" width="48" x="684.5" y="1056.8066"/><text fill="#000000" font-family="DejaVu Serif Condensed" font-size="16" lengthAdjust="spacing" textLength="28" x="694.5" y="1081.6582">A07</text><polygon fill="#7AAB8A" points="32,1005.4941,1385,1005.4941,1397,1017.4941,1385,1029.4941,32,1029.4941,20,1017.4941,32,1005.4941" style="stroke:#7AAB8A;stroke-width:0.5;"/><text fill="#000000" font-family="DejaVu Serif Condensed" font-size="16" lengthAdjust="spacing" textLength="13" x="712.5" y="1044.3457">ja</text><text fill="#000000" font-family="DejaVu Serif Condensed" font-size="18" font-weight="bold" lengthAdjust="spacing" textLength="17" x="32" y="1023.8223">7:</text><text fill="#000000" font-family="DejaVu Serif Condensed" font-size="18" lengthAdjust="spacing" textLength="1325" x="60" y="1023.8223">Existiert bereits für das genannte Tupel aus Aggregations-verantwortlicher, Bilanzierungsgebiet, Spannungsebene und ZRT eine abweichende ID des MaBiS-ZP?</text><text fill="#000000" font-family="DejaVu Serif Condensed" font-size="16" lengthAdjust="spacing" textLength="32" x="1397" y="1013.7207">nein</text><path d="M466.5,1189.0879 L466.5,1227.0254 A0,0 0 0 0 466.5,1227.0254 L664.5,1227.0254 A0,0 0 0 0 664.5,1227.0254 L664.5,1212.0566 L684.5,1208.0566 L664.5,1204.0566 L664.5,1199.0879 L654.5,1189.0879 L466.5,1189.0879 A0,0 0 0 0 466.5,1189.0879 " fill="#F3F1F6" style="stroke:#181818;stroke-width:0.5;"/><path d="M654.5,1189.0879 L654.5,1199.0879 L664.5,1199.0879 L654.5,1189.0879 " fill="#F3F1F6" style="stroke:#181818;stroke-width:0.5;"/><text fill="#000000" font-family="DejaVu Serif Condensed" font-size="12" lengthAdjust="spacing" textLength="101" x="472.5" y="1205.2266">Cluster Ablehnung</text><text fill="#000000" font-family="DejaVu Serif Condensed" font-size="12" lengthAdjust="spacing" textLength="177" x="472.5" y="1219.1953">ZRT Aktivierung nicht berechtigt</text><rect fill="#7A8DA1" height="38.625" rx="12.5" ry="12.5" style="stroke:none;stroke-width:0.5;" width="48" x="684.5" y="1188.7441"/><text fill="#000000" font-family="DejaVu Serif Condensed" font-size="16" lengthAdjust="spacing" textLength="28" x="694.5" y="1213.5957">A08</text><polygon fill="#7AAB8A" points="492.5,1137.4316,924.5,1137.4316,936.5,1149.4316,924.5,1161.4316,492.5,1161.4316,480.5,1149.4316,492.5,1137.4316" style="stroke:#7AAB8A;stroke-width:0.5;"/><text fill="#000000" font-family="DejaVu Serif Condensed" font-size="16" lengthAdjust="spacing" textLength="32" x="712.5" y="1176.2832">nein</text><text fill="#000000" font-family="DejaVu Serif Condensed" font-size="18" font-weight="bold" lengthAdjust="spacing" textLength="17" x="492.5" y="1155.7598">8:</text><text fill="#000000" font-family="DejaVu Serif Condensed" font-size="18" lengthAdjust="spacing" textLength="404" x="520.5" y="1155.7598">Ist der ÜNB zur Aktivierung des ZRT berechtigt?</text><text fill="#000000" font-family="DejaVu Serif Condensed" font-size="16" lengthAdjust="spacing" textLength="13" x="936.5" y="1145.6582">ja</text><path d="M537.5,1321.0254 L537.5,1358.9629 A0,0 0 0 0 537.5,1358.9629 L664.5,1358.9629 A0,0 0 0 0 664.5,1358.9629 L664.5,1343.9941 L684.5,1339.9941 L664.5,1335.9941 L664.5,1331.0254 L654.5,1321.0254 L537.5,1321.0254 A0,0 0 0 0 537.5,1321.0254 " fill="#F3F1F6" style="stroke:#181818;stroke-width:0.5;"/><path d="M654.5,1321.0254 L654.5,1331.0254 L664.5,1331.0254 L654.5,1321.0254 " fill="#F3F1F6" style="stroke:#181818;stroke-width:0.5;"/><text fill="#000000" font-family="DejaVu Serif Condensed" font-size="12" lengthAdjust="spacing" textLength="101" x="543.5" y="1337.1641">Cluster Ablehnung</text><text fill="#000000" font-family="DejaVu Serif Condensed" font-size="12" lengthAdjust="spacing" textLength="106" x="543.5" y="1351.1328">OBIS nicht passend</text><rect fill="#7A8DA1" height="38.625" rx="12.5" ry="12.5" style="stroke:none;stroke-width:0.5;" width="48" x="684.5" y="1320.6816"/><text fill="#000000" font-family="DejaVu Serif Condensed" font-size="16" lengthAdjust="spacing" textLength="28" x="694.5" y="1345.5332">A09</text><polygon fill="#7AAB8A" points="550,1269.3691,867,1269.3691,879,1281.3691,867,1293.3691,550,1293.3691,538,1281.3691,550,1269.3691" style="stroke:#7AAB8A;stroke-width:0.5;"/><text fill="#000000" font-family="DejaVu Serif Condensed" font-size="16" lengthAdjust="spacing" textLength="32" x="712.5" y="1308.2207">nein</text><text fill="#000000" font-family="DejaVu Serif Condensed" font-size="18" font-weight="bold" lengthAdjust="spacing" textLength="17" x="550" y="1287.6973">9:</text><text fill="#000000" font-family="DejaVu Serif Condensed" font-size="18" lengthAdjust="spacing" textLength="289" x="578" y="1287.6973">Passt die OBIS-Kennzahl zum ZRT?</text><text fill="#000000" font-family="DejaVu Serif Condensed" font-size="16" lengthAdjust="spacing" textLength="13" x="879" y="1277.5957">ja</text><polygon fill="#7AAB8A" points="415.5,1401.3066,1001.5,1401.3066,1013.5,1413.3066,1001.5,1425.3066,415.5,1425.3066,403.5,1413.3066,415.5,1401.3066" style="stroke:#7AAB8A;stroke-width:0.5;"/><text fill="#000000" font-family="DejaVu Serif Condensed" font-size="18" font-weight="bold" lengthAdjust="spacing" textLength="28" x="415.5" y="1419.6348">10:</text><text fill="#000000" font-family="DejaVu Serif Condensed" font-size="18" lengthAdjust="spacing" textLength="547" x="454.5" y="1419.6348">Ist der MaBiS-ZP zum Zeitpunkt der Aktivierung bereits aktiviert?</text><text fill="#000000" font-family="DejaVu Serif Condensed" font-size="16" lengthAdjust="spacing" textLength="13" x="390.5" y="1409.5332">ja</text><text fill="#000000" font-family="DejaVu Serif Condensed" font-size="16" lengthAdjust="spacing" textLength="32" x="1013.5" y="1409.5332">nein</text><path d="M187.5,1435.6504 L187.5,1473.5879 A0,0 0 0 0 187.5,1473.5879 L349.5,1473.5879 A0,0 0 0 0 349.5,1473.5879 L349.5,1458.6191 L369.5,1454.6191 L349.5,1450.6191 L349.5,1445.6504 L339.5,1435.6504 L187.5,1435.6504 A0,0 0 0 0 187.5,1435.6504 " fill="#F3F1F6" style="stroke:#181818;stroke-width:0.5;"/><path d="M339.5,1435.6504 L339.5,1445.6504 L349.5,1445.6504 L339.5,1435.6504 " fill="#F3F1F6" style="stroke:#181818;stroke-width:0.5;"/><text fill="#000000" font-family="DejaVu Serif Condensed" font-size="12" lengthAdjust="spacing" textLength="101" x="193.5" y="1451.7891">Cluster Ablehnung</text><text fill="#000000" font-family="DejaVu Serif Condensed" font-size="12" lengthAdjust="spacing" textLength="141" x="193.5" y="1465.7578">MaBiS-ZP bereits aktiviert</text><rect fill="#7A8DA1" height="38.625" rx="12.5" ry="12.5" style="stroke:none;stroke-width:0.5;" width="48" x="369.5" y="1435.3066"/><text fill="#000000" font-family="DejaVu Serif Condensed" font-size="16" lengthAdjust="spacing" textLength="28" x="379.5" y="1460.1582">A10</text><path d="M820.5,1435.6504 L820.5,1473.5879 A0,0 0 0 0 820.5,1473.5879 L979.5,1473.5879 A0,0 0 0 0 979.5,1473.5879 L979.5,1458.6191 L999.5,1454.6191 L979.5,1450.6191 L979.5,1445.6504 L969.5,1435.6504 L820.5,1435.6504 A0,0 0 0 0 820.5,1435.6504 " fill="#F3F1F6" style="stroke:#181818;stroke-width:0.5;"/><path d="M969.5,1435.6504 L969.5,1445.6504 L979.5,1445.6504 L969.5,1435.6504 " fill="#F3F1F6" style="stroke:#181818;stroke-width:0.5;"/><text fill="#000000" font-family="DejaVu Serif Condensed" font-size="12" lengthAdjust="spacing" textLength="115" x="826.5" y="1451.7891">Cluster: Zustimmung</text><text fill="#000000" font-family="DejaVu Serif Condensed" font-size="12" lengthAdjust="spacing" textLength="138" x="826.5" y="1465.7578">Aktivierung durchgeführt</text><rect fill="#7A8DA1" height="38.625" rx="12.5" ry="12.5" style="stroke:none;stroke-width:0.5;" width="48" x="999.5" y="1435.3066"/><text fill="#000000" font-family="DejaVu Serif Condensed" font-size="16" lengthAdjust="spacing" textLength="28" x="1009.5" y="1460.1582">A11</text><line style="stroke:#7AAB8A;stroke-width:1.0;" x1="708.5" x2="708.5" y1="237.8691" y2="265.1816"/><polygon fill="#7AAB8A" points="704.5,255.1816,708.5,265.1816,712.5,255.1816,708.5,259.1816" style="stroke:#7AAB8A;stroke-width:1.0;"/><line style="stroke:#7AAB8A;stroke-width:1.0;" x1="1011.5" x2="1023.5" y1="225.8691" y2="225.8691"/><polygon fill="#7AAB8A" points="1019.5,271.4941,1023.5,281.4941,1027.5,271.4941,1023.5,275.4941" style="stroke:#7AAB8A;stroke-width:1.0;"/><line style="stroke:#7AAB8A;stroke-width:1.0;" x1="1023.5" x2="1023.5" y1="225.8691" y2="325.8066"/><line style="stroke:#7AAB8A;stroke-width:1.0;" x1="1023.5" x2="708.5" y1="325.8066" y2="325.8066"/><line style="stroke:#7AAB8A;stroke-width:1.0;" x1="708.5" x2="708.5" y1="325.8066" y2="345.8066"/><polygon fill="#7AAB8A" points="704.5,335.8066,708.5,345.8066,712.5,335.8066,708.5,339.8066" style="stroke:#7AAB8A;stroke-width:1.0;"/><line style="stroke:#7AAB8A;stroke-width:1.0;" x1="708.5" x2="708.5" y1="193.8691" y2="213.8691"/><polygon fill="#7AAB8A" points="704.5,203.8691,708.5,213.8691,712.5,203.8691,708.5,207.8691" style="stroke:#7AAB8A;stroke-width:1.0;"/><line style="stroke:#7AAB8A;stroke-width:1.0;" x1="708.5" x2="708.5" y1="369.8066" y2="397.1191"/><polygon fill="#7AAB8A" points="704.5,387.1191,708.5,397.1191,712.5,387.1191,708.5,391.1191" style="stroke:#7AAB8A;stroke-width:1.0;"/><line style="stroke:#7AAB8A;stroke-width:1.0;" x1="956.5" x2="968.5" y1="357.8066" y2="357.8066"/><polygon fill="#7AAB8A" points="964.5,403.4316,968.5,413.4316,972.5,403.4316,968.5,407.4316" style="stroke:#7AAB8A;stroke-width:1.0;"/><line style="stroke:#7AAB8A;stroke-width:1.0;" x1="968.5" x2="968.5" y1="357.8066" y2="457.7441"/><line style="stroke:#7AAB8A;stroke-width:1.0;" x1="968.5" x2="708.5" y1="457.7441" y2="457.7441"/><line style="stroke:#7AAB8A;stroke-width:1.0;" x1="708.5" x2="708.5" y1="457.7441" y2="477.7441"/><polygon fill="#7AAB8A" points="704.5,467.7441,708.5,477.7441,712.5,467.7441,708.5,471.7441" style="stroke:#7AAB8A;stroke-width:1.0;"/><line style="stroke:#7AAB8A;stroke-width:1.0;" x1="708.5" x2="708.5" y1="501.7441" y2="529.0566"/><polygon fill="#7AAB8A" points="704.5,519.0566,708.5,529.0566,712.5,519.0566,708.5,523.0566" style="stroke:#7AAB8A;stroke-width:1.0;"/><line style="stroke:#7AAB8A;stroke-width:1.0;" x1="887.5" x2="899.5" y1="489.7441" y2="489.7441"/><polygon fill="#7AAB8A" points="895.5,535.3691,899.5,545.3691,903.5,535.3691,899.5,539.3691" style="stroke:#7AAB8A;stroke-width:1.0;"/><line style="stroke:#7AAB8A;stroke-width:1.0;" x1="899.5" x2="899.5" y1="489.7441" y2="589.6816"/><line style="stroke:#7AAB8A;stroke-width:1.0;" x1="899.5" x2="708.5" y1="589.6816" y2="589.6816"/><line style="stroke:#7AAB8A;stroke-width:1.0;" x1="708.5" x2="708.5" y1="589.6816" y2="609.6816"/><polygon fill="#7AAB8A" points="704.5,599.6816,708.5,609.6816,712.5,599.6816,708.5,603.6816" style="stroke:#7AAB8A;stroke-width:1.0;"/><line style="stroke:#7AAB8A;stroke-width:1.0;" x1="708.5" x2="708.5" y1="633.6816" y2="660.9941"/><polygon fill="#7AAB8A" points="704.5,650.9941,708.5,660.9941,712.5,650.9941,708.5,654.9941" style="stroke:#7AAB8A;stroke-width:1.0;"/><line style="stroke:#7AAB8A;stroke-width:1.0;" x1="1090.5" x2="1102.5" y1="621.6816" y2="621.6816"/><polygon fill="#7AAB8A" points="1098.5,667.3066,1102.5,677.3066,1106.5,667.3066,1102.5,671.3066" style="stroke:#7AAB8A;stroke-width:1.0;"/><line style="stroke:#7AAB8A;stroke-width:1.0;" x1="1102.5" x2="1102.5" y1="621.6816" y2="721.6191"/><line style="stroke:#7AAB8A;stroke-width:1.0;" x1="1102.5" x2="708.5" y1="721.6191" y2="721.6191"/><line style="stroke:#7AAB8A;stroke-width:1.0;" x1="708.5" x2="708.5" y1="721.6191" y2="741.6191"/><polygon fill="#7AAB8A" points="704.5,731.6191,708.5,741.6191,712.5,731.6191,708.5,735.6191" style="stroke:#7AAB8A;stroke-width:1.0;"/><line style="stroke:#7AAB8A;stroke-width:1.0;" x1="708.5" x2="708.5" y1="765.6191" y2="792.9316"/><polygon fill="#7AAB8A" points="704.5,782.9316,708.5,792.9316,712.5,782.9316,708.5,786.9316" style="stroke:#7AAB8A;stroke-width:1.0;"/><line style="stroke:#7AAB8A;stroke-width:1.0;" x1="1047.5" x2="1059.5" y1="753.6191" y2="753.6191"/><polygon fill="#7AAB8A" points="1055.5,799.2441,1059.5,809.2441,1063.5,799.2441,1059.5,803.2441" style="stroke:#7AAB8A;stroke-width:1.0;"/><line style="stroke:#7AAB8A;stroke-width:1.0;" x1="1059.5" x2="1059.5" y1="753.6191" y2="853.5566"/><line style="stroke:#7AAB8A;stroke-width:1.0;" x1="1059.5" x2="708.5" y1="853.5566" y2="853.5566"/><line style="stroke:#7AAB8A;stroke-width:1.0;" x1="708.5" x2="708.5" y1="853.5566" y2="873.5566"/><polygon fill="#7AAB8A" points="704.5,863.5566,708.5,873.5566,712.5,863.5566,708.5,867.5566" style="stroke:#7AAB8A;stroke-width:1.0;"/><line style="stroke:#7AAB8A;stroke-width:1.0;" x1="708.5" x2="708.5" y1="897.5566" y2="924.8691"/><polygon fill="#7AAB8A" points="704.5,914.8691,708.5,924.8691,712.5,914.8691,708.5,918.8691" style="stroke:#7AAB8A;stroke-width:1.0;"/><line style="stroke:#7AAB8A;stroke-width:1.0;" x1="1020.5" x2="1032.5" y1="885.5566" y2="885.5566"/><polygon fill="#7AAB8A" points="1028.5,931.1816,1032.5,941.1816,1036.5,931.1816,1032.5,935.1816" style="stroke:#7AAB8A;stroke-width:1.0;"/><line style="stroke:#7AAB8A;stroke-width:1.0;" x1="1032.5" x2="1032.5" y1="885.5566" y2="985.4941"/><line style="stroke:#7AAB8A;stroke-width:1.0;" x1="1032.5" x2="708.5" y1="985.4941" y2="985.4941"/><line style="stroke:#7AAB8A;stroke-width:1.0;" x1="708.5" x2="708.5" y1="985.4941" y2="1005.4941"/><polygon fill="#7AAB8A" points="704.5,995.4941,708.5,1005.4941,712.5,995.4941,708.5,999.4941" style="stroke:#7AAB8A;stroke-width:1.0;"/><line style="stroke:#7AAB8A;stroke-width:1.0;" x1="708.5" x2="708.5" y1="1029.4941" y2="1056.8066"/><polygon fill="#7AAB8A" points="704.5,1046.8066,708.5,1056.8066,712.5,1046.8066,708.5,1050.8066" style="stroke:#7AAB8A;stroke-width:1.0;"/><line style="stroke:#7AAB8A;stroke-width:1.0;" x1="1397" x2="1409" y1="1017.4941" y2="1017.4941"/><polygon fill="#7AAB8A" points="1405,1063.1191,1409,1073.1191,1413,1063.1191,1409,1067.1191" style="stroke:#7AAB8A;stroke-width:1.0;"/><line style="stroke:#7AAB8A;stroke-width:1.0;" x1="1409" x2="1409" y1="1017.4941" y2="1117.4316"/><line style="stroke:#7AAB8A;stroke-width:1.0;" x1="1409" x2="708.5" y1="1117.4316" y2="1117.4316"/><line style="stroke:#7AAB8A;stroke-width:1.0;" x1="708.5" x2="708.5" y1="1117.4316" y2="1137.4316"/><polygon fill="#7AAB8A" points="704.5,1127.4316,708.5,1137.4316,712.5,1127.4316,708.5,1131.4316" style="stroke:#7AAB8A;stroke-width:1.0;"/><line style="stroke:#7AAB8A;stroke-width:1.0;" x1="708.5" x2="708.5" y1="1161.4316" y2="1188.7441"/><polygon fill="#7AAB8A" points="704.5,1178.7441,708.5,1188.7441,712.5,1178.7441,708.5,1182.7441" style="stroke:#7AAB8A;stroke-width:1.0;"/><line style="stroke:#7AAB8A;stroke-width:1.0;" x1="936.5" x2="948.5" y1="1149.4316" y2="1149.4316"/><polygon fill="#7AAB8A" points="944.5,1195.0566,948.5,1205.0566,952.5,1195.0566,948.5,1199.0566" style="stroke:#7AAB8A;stroke-width:1.0;"/><line style="stroke:#7AAB8A;stroke-width:1.0;" x1="948.5" x2="948.5" y1="1149.4316" y2="1249.3691"/><line style="stroke:#7AAB8A;stroke-width:1.0;" x1="948.5" x2="708.5" y1="1249.3691" y2="1249.3691"/><line style="stroke:#7AAB8A;stroke-width:1.0;" x1="708.5" x2="708.5" y1="1249.3691" y2="1269.3691"/><polygon fill="#7AAB8A" points="704.5,1259.3691,708.5,1269.3691,712.5,1259.3691,708.5,1263.3691" style="stroke:#7AAB8A;stroke-width:1.0;"/><line style="stroke:#7AAB8A;stroke-width:1.0;" x1="708.5" x2="708.5" y1="1293.3691" y2="1320.6816"/><polygon fill="#7AAB8A" points="704.5,1310.6816,708.5,1320.6816,712.5,1310.6816,708.5,1314.6816" style="stroke:#7AAB8A;stroke-width:1.0;"/><line style="stroke:#7AAB8A;stroke-width:1.0;" x1="879" x2="891" y1="1281.3691" y2="1281.3691"/><polygon fill="#7AAB8A" points="887,1326.9941,891,1336.9941,895,1326.9941,891,1330.9941" style="stroke:#7AAB8A;stroke-width:1.0;"/><line style="stroke:#7AAB8A;stroke-width:1.0;" x1="891" x2="891" y1="1281.3691" y2="1381.3066"/><line style="stroke:#7AAB8A;stroke-width:1.0;" x1="891" x2="708.5" y1="1381.3066" y2="1381.3066"/><line style="stroke:#7AAB8A;stroke-width:1.0;" x1="708.5" x2="708.5" y1="1381.3066" y2="1401.3066"/><polygon fill="#7AAB8A" points="704.5,1391.3066,708.5,1401.3066,712.5,1391.3066,708.5,1395.3066" style="stroke:#7AAB8A;stroke-width:1.0;"/><line style="stroke:#7AAB8A;stroke-width:1.0;" x1="403.5" x2="393.5" y1="1413.3066" y2="1413.3066"/><line style="stroke:#7AAB8A;stroke-width:1.0;" x1="393.5" x2="393.5" y1="1413.3066" y2="1435.3066"/><polygon fill="#7AAB8A" points="389.5,1425.3066,393.5,1435.3066,397.5,1425.3066,393.5,1429.3066" style="stroke:#7AAB8A;stroke-width:1.0;"/><line style="stroke:#7AAB8A;stroke-width:1.0;" x1="1013.5" x2="1023.5" y1="1413.3066" y2="1413.3066"/><line style="stroke:#7AAB8A;stroke-width:1.0;" x1="1023.5" x2="1023.5" y1="1413.3066" y2="1435.3066"/><polygon fill="#7AAB8A" points="1019.5,1425.3066,1023.5,1435.3066,1027.5,1425.3066,1023.5,1429.3066" style="stroke:#7AAB8A;stroke-width:1.0;"/><!--SRC=[hLRTRjf85BxtKnnfRnAfwTga0KAYL92VLOIQHgNRYznKOtniJnd6Q6OSTdcMlSnZv8uNspE3COQQ06ej91pEcVDzt_cRw16N4wRO60OfYx8fbmd4J6ZqT6bvo0psCXMXkiv4fk2F-3GEukQc1nkE4fNbCdhBwowJPi1d246ZOkaE3N_cvjygYimarhbimhHOEs91ZUSAgagYgrGsBO-oiCqsZLlE5L5lE1jdCggXiHbhuq0rWRkSLnJQ5QS8OvOBOuqFR8nmWp_Ojnm6g7WCrtGCfSQe9kfjoRBPF3zh-vwN8YCstcLuTVUjqGXyh-4t6YU1_NWeeyBi6Mu4UgttGGkwDnteZcmyL3ar2NA96Zwn7X-SF3r2F7zLqEE2oTd2GISOSZHQv-CnoXboev2dAE4v6yFyluSUC0cz-_vde1p2GyzpCEy3kFtk-y7Pzp9o5NIYvgynIeyUOWaBUXrIiJXq-MTuTU59QZDGF4cDrNV9hnuNfoA4BvaGs76mBe1rzJpAtX5v1Xsm0U1MnPb834GSry0b6wRG3GNBOog5Wck1JD6yn8fhiqY0FTBlzRiVZy5OhKS_sB47z7IwVd3XtXmxWR5nVzddMkJQK3mAZQaafD9oPoFFNqDKUfXI-ipIIDmTTVi-ua9SU4WZ2qUIgd9ibV5ugQgnGzKi7yEdJ3AZ2SKGPz_l-3xydQer4TNuXQ36uOB-mkdy9HNM-4Ho9haS6P1yc1hY8UOlMlEj0gkYJWjHzteXIDaGFA42Ou9YHfk3kYkXzn3b3XMdXwjOWTXDEKptOVoXofZfkb5nfQYKHeUOS2c1IzTkAzI81izDJZ9_5IHxLw4-72wnZjwYJWNcFfhFgfe9natz5f6ByTcQ61g35mgzK-hPuLBxTfD13nMw7dfZnAhQcikn-eT6bDWQe2cbbjPsCG8BfqZPiZj7mzTyWeAsd8MtQRY_SHLSBhYwNT4yN4Pt1QbMQtb9wZbJARCNnA7hexLLPrcn12MJfAuGod8DtIHHc333CwbFdb4nQQQPCi8ILE_gQlmE1XEAOd-mGulkLdZwyjNTCzLyxfE-rY-bpoAuhVZRajYk7mIrjeYjA2iuN7QYsTNixSDbMe2rEytDz0fodzO_BzGyCbsity-z-y597wMSiLIut17EBlRdXxEtE0Nb2O4Jgttu1lv6-il2EgRbFMHDrTmioywAtqnDgmN-uIf-wgiIO8- -Ac1t_JFHWIVwvkFnMezNkorNmpH16k9KlLtr_m40]--></g></svg>