<?xml version="1.0" encoding="UTF-8" standalone="no"?><svg xmlns="http://www.w3.org/2000/svg" xmlns:xlink="http://www.w3.org/1999/xlink" contentStyleType="text/css" height="725px" preserveAspectRatio="none" style="width:1238px;height:725px;background:#FFFFFF;" version="1.1" viewBox="0 0 1238 725" width="1238px" zoomAndPan="magnify"><defs/><g><text fill="#888888" font-family="DejaVu Serif Condensed" font-size="10" font-weight="bold" lengthAdjust="spacing" textLength="37" x="1188" y="19.3896">FV2210</text><text fill="#888888" font-family="DejaVu Serif Condensed" font-size="10" lengthAdjust="spacing" textLength="54" x="1171" y="31.0303">2022-12-12</text><text fill="#000000" font-family="DejaVu Serif Condensed" font-size="14" font-weight="bold" lengthAdjust="spacing" textLength="730" x="252.5" y="57.5342">7.41 AD: Übermittlung Prüfmitteilung für die Bilanzkreissummenzeitreihe vom BKV an BIKO und ÜNB</text><text fill="#000000" font-family="DejaVu Serif Condensed" font-size="14" font-weight="bold" lengthAdjust="spacing" textLength="4" x="615.5" y="73.9814"> </text><text fill="#000000" font-family="DejaVu Serif Condensed" font-size="14" font-weight="bold" lengthAdjust="spacing" textLength="262" x="486.5" y="90.4287">7.41.2 E_0025_Prüfmitteilung prüfen</text><text fill="#000000" font-family="DejaVu Serif Condensed" font-size="14" font-weight="bold" lengthAdjust="spacing" textLength="4" x="615.5" y="106.876"> </text><text fill="#000000" font-family="DejaVu Serif Condensed" font-size="14" font-weight="bold" lengthAdjust="spacing" textLength="4" x="615.5" y="123.3232"> </text><text fill="#000000" font-family="DejaVu Serif Condensed" font-size="14" font-weight="bold" lengthAdjust="spacing" textLength="4" x="615.5" y="139.7705"> </text><path d="M664,162.4219 L664,170.4707 L644,174.4707 L664,178.4707 L664,186.5195 A0,0 0 0 0 664,186.5195 L817,186.5195 A0,0 0 0 0 817,186.5195 L817,172.4219 L807,162.4219 L664,162.4219 A0,0 0 0 0 664,162.4219 " fill="#F3F1F6" style="stroke:#181818;stroke-width:0.5;"/><path d="M807,162.4219 L807,172.4219 L817,172.4219 L807,162.4219 " fill="#F3F1F6" style="stroke:#181818;stroke-width:0.5;"/><text fill="#000000" font-family="DejaVu Serif Condensed" font-size="12" font-style="italic" font-weight="bold" lengthAdjust="spacing" textLength="132" x="670" y="178.6895">Prüfende Rolle: BIKO</text><rect fill="#7A8DA1" height="38.7969" rx="12.5" ry="12.5" style="stroke:none;stroke-width:0.5;" width="78" x="566" y="155.0723"/><text fill="#000000" font-family="DejaVu Serif Condensed" font-size="16" font-weight="bold" lengthAdjust="spacing" textLength="58" x="576" y="180.0957">E_0025</text><path d="M432,272.5098 L432,296.4785 A0,0 0 0 0 432,296.4785 L561,296.4785 A0,0 0 0 0 561,296.4785 L561,290.5098 L581,284.4941 L561,282.5098 L561,282.5098 L551,272.5098 L432,272.5098 A0,0 0 0 0 432,272.5098 " fill="#F3F1F6" style="stroke:#181818;stroke-width:0.5;"/><path d="M551,272.5098 L551,282.5098 L561,282.5098 L551,272.5098 " fill="#F3F1F6" style="stroke:#181818;stroke-width:0.5;"/><text fill="#000000" font-family="DejaVu Serif Condensed" font-size="12" lengthAdjust="spacing" textLength="108" x="438" y="288.6484">Fristüberschreitung</text><rect fill="#7A8DA1" height="38.625" rx="12.5" ry="12.5" style="stroke:none;stroke-width:0.5;" width="48" x="581" y="265.1816"/><text fill="#000000" font-family="DejaVu Serif Condensed" font-size="16" lengthAdjust="spacing" textLength="28" x="591" y="290.0332">A01</text><polygon fill="#7AAB8A" points="248.5,213.8691,961.5,213.8691,973.5,225.8691,961.5,237.8691,248.5,237.8691,236.5,225.8691,248.5,213.8691" style="stroke:#7AAB8A;stroke-width:0.5;"/><text fill="#000000" font-family="DejaVu Serif Condensed" font-size="16" lengthAdjust="spacing" textLength="13" x="609" y="252.7207">ja</text><text fill="#000000" font-family="DejaVu Serif Condensed" font-size="18" font-weight="bold" lengthAdjust="spacing" textLength="17" x="248.5" y="232.1973">1:</text><text fill="#000000" font-family="DejaVu Serif Condensed" font-size="18" lengthAdjust="spacing" textLength="685" x="276.5" y="232.1973">Erfolgt der Eingang der Prüfmitteilung nach Ablauf der Clearingfrist für die KBKA?</text><text fill="#000000" font-family="DejaVu Serif Condensed" font-size="16" lengthAdjust="spacing" textLength="32" x="973.5" y="222.0957">nein</text><polygon fill="#7AAB8A" points="344.5,345.8066,865.5,345.8066,877.5,357.8066,865.5,369.8066,344.5,369.8066,332.5,357.8066,344.5,345.8066" style="stroke:#7AAB8A;stroke-width:0.5;"/><text fill="#000000" font-family="DejaVu Serif Condensed" font-size="18" font-weight="bold" lengthAdjust="spacing" textLength="17" x="344.5" y="364.1348">2:</text><text fill="#000000" font-family="DejaVu Serif Condensed" font-size="18" lengthAdjust="spacing" textLength="493" x="372.5" y="364.1348">Befindet sich der MaBiS-ZP auf der Aggregationsebene RZ?</text><text fill="#000000" font-family="DejaVu Serif Condensed" font-size="16" lengthAdjust="spacing" textLength="13" x="319.5" y="354.0332">ja</text><text fill="#000000" font-family="DejaVu Serif Condensed" font-size="16" lengthAdjust="spacing" textLength="32" x="877.5" y="354.0332">nein</text><path d="M69,477.5 L69,501.4688 A0,0 0 0 0 69,501.4688 L258,501.4688 A0,0 0 0 0 258,501.4688 L258,495.5 L278,489.4844 L258,487.5 L258,487.5 L248,477.5 L69,477.5 A0,0 0 0 0 69,477.5 " fill="#F3F1F6" style="stroke:#181818;stroke-width:0.5;"/><path d="M248,477.5 L248,487.5 L258,487.5 L248,477.5 " fill="#F3F1F6" style="stroke:#181818;stroke-width:0.5;"/><text fill="#000000" font-family="DejaVu Serif Condensed" font-size="12" lengthAdjust="spacing" textLength="168" x="75" y="493.6387">Falsche Aggregationsebene RZ</text><rect fill="#7A8DA1" height="38.625" rx="12.5" ry="12.5" style="stroke:none;stroke-width:0.5;" width="48" x="278" y="470.1719"/><text fill="#000000" font-family="DejaVu Serif Condensed" font-size="16" lengthAdjust="spacing" textLength="28" x="288" y="495.0234">A03</text><polygon fill="#7AAB8A" points="32,379.8066,572,379.8066,584,411.333,572,442.8594,32,442.8594,20,411.333,32,379.8066" style="stroke:#7AAB8A;stroke-width:0.5;"/><text fill="#000000" font-family="DejaVu Serif Condensed" font-size="16" lengthAdjust="spacing" textLength="13" x="306" y="457.7109">ja</text><text fill="#000000" font-family="DejaVu Serif Condensed" font-size="18" font-weight="bold" lengthAdjust="spacing" textLength="17" x="32" y="396.708">5:</text><text fill="#000000" font-family="DejaVu Serif Condensed" font-size="18" lengthAdjust="spacing" textLength="512" x="60" y="396.708">Hat der BKV dem BIKO für diesen Bilanzierungsmonat bereits</text><text fill="#000000" font-family="DejaVu Serif Condensed" font-size="18" lengthAdjust="spacing" textLength="477" x="32" y="417.6611">mitgeteilt, dass die weiteren Prüfungen auf Ebene des BG</text><text fill="#000000" font-family="DejaVu Serif Condensed" font-size="18" lengthAdjust="spacing" textLength="165" x="32" y="438.6143">stattfinden müssen?</text><text fill="#000000" font-family="DejaVu Serif Condensed" font-size="16" lengthAdjust="spacing" textLength="32" x="584" y="407.5596">nein</text><path d="M674,546.9121 L674,570.8809 A0,0 0 0 0 674,570.8809 L864,570.8809 A0,0 0 0 0 864,570.8809 L864,564.9121 L884,558.8965 L864,556.9121 L864,556.9121 L854,546.9121 L674,546.9121 A0,0 0 0 0 674,546.9121 " fill="#F3F1F6" style="stroke:#181818;stroke-width:0.5;"/><path d="M854,546.9121 L854,556.9121 L864,556.9121 L854,546.9121 " fill="#F3F1F6" style="stroke:#181818;stroke-width:0.5;"/><text fill="#000000" font-family="DejaVu Serif Condensed" font-size="12" lengthAdjust="spacing" textLength="169" x="680" y="563.0508">Falsche Aggregationsebene BG</text><rect fill="#7A8DA1" height="38.625" rx="12.5" ry="12.5" style="stroke:none;stroke-width:0.5;" width="48" x="884" y="539.584"/><text fill="#000000" font-family="DejaVu Serif Condensed" font-size="16" lengthAdjust="spacing" textLength="28" x="894" y="564.4355">A02</text><polygon fill="#7AAB8A" points="638,449.2188,1178,449.2188,1190,480.7451,1178,512.2715,638,512.2715,626,480.7451,638,449.2188" style="stroke:#7AAB8A;stroke-width:0.5;"/><text fill="#000000" font-family="DejaVu Serif Condensed" font-size="16" lengthAdjust="spacing" textLength="32" x="912" y="527.123">nein</text><text fill="#000000" font-family="DejaVu Serif Condensed" font-size="18" font-weight="bold" lengthAdjust="spacing" textLength="17" x="638" y="466.1201">4:</text><text fill="#000000" font-family="DejaVu Serif Condensed" font-size="18" lengthAdjust="spacing" textLength="512" x="666" y="466.1201">Hat der BKV dem BIKO für diesen Bilanzierungsmonat bereits</text><text fill="#000000" font-family="DejaVu Serif Condensed" font-size="18" lengthAdjust="spacing" textLength="477" x="638" y="487.0732">mitgeteilt, dass die weiteren Prüfungen auf Ebene des BG</text><text fill="#000000" font-family="DejaVu Serif Condensed" font-size="18" lengthAdjust="spacing" textLength="165" x="638" y="508.0264">stattfinden müssen?</text><text fill="#000000" font-family="DejaVu Serif Condensed" font-size="16" lengthAdjust="spacing" textLength="13" x="1190" y="476.9717">ja</text><polygon fill="#7AAB8A" points="644,379.8066,1172,379.8066,1184,400.8564,1172,421.9063,644,421.9063,632,400.8564,644,379.8066" style="stroke:#7AAB8A;stroke-width:0.5;"/><text fill="#000000" font-family="DejaVu Serif Condensed" font-size="16" lengthAdjust="spacing" textLength="32" x="912" y="436.7578">nein</text><text fill="#000000" font-family="DejaVu Serif Condensed" font-size="18" font-weight="bold" lengthAdjust="spacing" textLength="17" x="644" y="396.708">3:</text><text fill="#000000" font-family="DejaVu Serif Condensed" font-size="18" lengthAdjust="spacing" textLength="500" x="672" y="396.708">Hat der BKV für den BK dieses MaBiS-ZP in diesem Bilanzie-</text><text fill="#000000" font-family="DejaVu Serif Condensed" font-size="18" lengthAdjust="spacing" textLength="417" x="644" y="417.6611">rungsmonat die Aggregationsebene RZ abbestellt?</text><text fill="#000000" font-family="DejaVu Serif Condensed" font-size="16" lengthAdjust="spacing" textLength="13" x="1184" y="397.083">ja</text><polygon fill="#7AAB8A" points="908,620.209,920,632.209,908,644.209,896,632.209,908,620.209" style="stroke:#7AAB8A;stroke-width:0.5;"/><polygon fill="#7AAB8A" points="605,650.209,617,662.209,605,674.209,593,662.209,605,650.209" style="stroke:#7AAB8A;stroke-width:0.5;"/><ellipse cx="605" cy="704.209" fill="none" rx="10" ry="10" style="stroke:#669580;stroke-width:1.5;"/><line style="stroke:#669580;stroke-width:2.5;" x1="598.8128" x2="611.1872" y1="698.0218" y2="710.3962"/><line style="stroke:#669580;stroke-width:2.5;" x1="611.1872" x2="598.8128" y1="698.0218" y2="710.3962"/><line style="stroke:#7AAB8A;stroke-width:1.0;" x1="605" x2="605" y1="237.8691" y2="265.1816"/><polygon fill="#7AAB8A" points="601,255.1816,605,265.1816,609,255.1816,605,259.1816" style="stroke:#7AAB8A;stroke-width:1.0;"/><line style="stroke:#7AAB8A;stroke-width:1.0;" x1="973.5" x2="985.5" y1="225.8691" y2="225.8691"/><polygon fill="#7AAB8A" points="981.5,271.4941,985.5,281.4941,989.5,271.4941,985.5,275.4941" style="stroke:#7AAB8A;stroke-width:1.0;"/><line style="stroke:#7AAB8A;stroke-width:1.0;" x1="985.5" x2="985.5" y1="225.8691" y2="325.8066"/><line style="stroke:#7AAB8A;stroke-width:1.0;" x1="985.5" x2="605" y1="325.8066" y2="325.8066"/><line style="stroke:#7AAB8A;stroke-width:1.0;" x1="605" x2="605" y1="325.8066" y2="345.8066"/><polygon fill="#7AAB8A" points="601,335.8066,605,345.8066,609,335.8066,605,339.8066" style="stroke:#7AAB8A;stroke-width:1.0;"/><line style="stroke:#7AAB8A;stroke-width:1.0;" x1="605" x2="605" y1="193.8691" y2="213.8691"/><polygon fill="#7AAB8A" points="601,203.8691,605,213.8691,609,203.8691,605,207.8691" style="stroke:#7AAB8A;stroke-width:1.0;"/><line style="stroke:#7AAB8A;stroke-width:1.0;" x1="302" x2="302" y1="442.8594" y2="470.1719"/><polygon fill="#7AAB8A" points="298,460.1719,302,470.1719,306,460.1719,302,464.1719" style="stroke:#7AAB8A;stroke-width:1.0;"/><line style="stroke:#7AAB8A;stroke-width:1.0;" x1="584" x2="596" y1="411.333" y2="411.333"/><polygon fill="#7AAB8A" points="592,466.7212,596,476.7212,600,466.7212,596,470.7212" style="stroke:#7AAB8A;stroke-width:1.0;"/><line style="stroke:#7AAB8A;stroke-width:1.0;" x1="596" x2="596" y1="411.333" y2="542.1094"/><line style="stroke:#7AAB8A;stroke-width:1.0;" x1="596" x2="302" y1="542.1094" y2="542.1094"/><line style="stroke:#7AAB8A;stroke-width:1.0;" x1="302" x2="302" y1="542.1094" y2="662.209"/><line style="stroke:#7AAB8A;stroke-width:1.0;" x1="302" x2="593" y1="662.209" y2="662.209"/><polygon fill="#7AAB8A" points="583,658.209,593,662.209,583,666.209,587,662.209" style="stroke:#7AAB8A;stroke-width:1.0;"/><line style="stroke:#7AAB8A;stroke-width:1.0;" x1="908" x2="908" y1="512.2715" y2="539.584"/><polygon fill="#7AAB8A" points="904,529.584,908,539.584,912,529.584,908,533.584" style="stroke:#7AAB8A;stroke-width:1.0;"/><line style="stroke:#7AAB8A;stroke-width:1.0;" x1="1190" x2="1202" y1="480.7451" y2="480.7451"/><polygon fill="#7AAB8A" points="1198,536.1333,1202,546.1333,1206,536.1333,1202,540.1333" style="stroke:#7AAB8A;stroke-width:1.0;"/><line style="stroke:#7AAB8A;stroke-width:1.0;" x1="1202" x2="1202" y1="480.7451" y2="600.209"/><line style="stroke:#7AAB8A;stroke-width:1.0;" x1="1202" x2="908" y1="600.209" y2="600.209"/><line style="stroke:#7AAB8A;stroke-width:1.0;" x1="908" x2="908" y1="600.209" y2="620.209"/><polygon fill="#7AAB8A" points="904,610.209,908,620.209,912,610.209,908,614.209" style="stroke:#7AAB8A;stroke-width:1.0;"/><line style="stroke:#7AAB8A;stroke-width:1.0;" x1="908" x2="908" y1="421.9063" y2="449.2188"/><polygon fill="#7AAB8A" points="904,439.2188,908,449.2188,912,439.2188,908,443.2188" style="stroke:#7AAB8A;stroke-width:1.0;"/><line style="stroke:#7AAB8A;stroke-width:1.0;" x1="1184" x2="1212" y1="400.8564" y2="400.8564"/><polygon fill="#7AAB8A" points="1208,515.8452,1212,525.8452,1216,515.8452,1212,519.8452" style="stroke:#7AAB8A;stroke-width:1.0;"/><line style="stroke:#7AAB8A;stroke-width:1.0;" x1="1212" x2="1212" y1="400.8564" y2="632.209"/><line style="stroke:#7AAB8A;stroke-width:1.0;" x1="1212" x2="920" y1="632.209" y2="632.209"/><polygon fill="#7AAB8A" points="930,628.209,920,632.209,930,636.209,926,632.209" style="stroke:#7AAB8A;stroke-width:1.0;"/><line style="stroke:#7AAB8A;stroke-width:1.0;" x1="332.5" x2="302" y1="357.8066" y2="357.8066"/><line style="stroke:#7AAB8A;stroke-width:1.0;" x1="302" x2="302" y1="357.8066" y2="379.8066"/><polygon fill="#7AAB8A" points="298,369.8066,302,379.8066,306,369.8066,302,373.8066" style="stroke:#7AAB8A;stroke-width:1.0;"/><line style="stroke:#7AAB8A;stroke-width:1.0;" x1="877.5" x2="908" y1="357.8066" y2="357.8066"/><line style="stroke:#7AAB8A;stroke-width:1.0;" x1="908" x2="908" y1="357.8066" y2="379.8066"/><polygon fill="#7AAB8A" points="904,369.8066,908,379.8066,912,369.8066,908,373.8066" style="stroke:#7AAB8A;stroke-width:1.0;"/><line style="stroke:#7AAB8A;stroke-width:1.0;" x1="908" x2="908" y1="644.209" y2="662.209"/><line style="stroke:#7AAB8A;stroke-width:1.0;" x1="908" x2="617" y1="662.209" y2="662.209"/><polygon fill="#7AAB8A" points="627,658.209,617,662.209,627,666.209,623,662.209" style="stroke:#7AAB8A;stroke-width:1.0;"/><line style="stroke:#7AAB8A;stroke-width:1.0;" x1="605" x2="605" y1="674.209" y2="694.209"/><polygon fill="#7AAB8A" points="601,684.209,605,694.209,609,684.209,605,688.209" style="stroke:#7AAB8A;stroke-width:1.0;"/><!--SRC=[rPJTJjim5CVl_HH7sWr8WpLXGDSYfWRADbLZQ9Muu0OvpKbYwZZ8Ta7ZMVOelUkBxTX9sv1cx7fHLTa-N__pEqxCNAX7hda1qvmdvRDG6QHS6cHcOxakBKQbJb1VbBBKy2uzIeFqfEt1P_DCbmkLlELrLIex5Iy8GTYmZ6PMF0dxgrb5bGgxNDfbJda_uK67vxPKKyH8w_9v4yhZFcyR_n9NPxqKl2XLqY6ZdQiLq0JuB-UjX7x3AS6KBwHrncjU85pY0xzTm1IrIE62mb0PJ3goZZSgJqu-7VTxZEN8IGqxYy-lRiCmwB6m5uO7WVinL4bjPbPOYUpqy6C0eyi1h7x7g0jXhLpGDRdHgsNgTYZyFbqjDIG28HAIgvUvHc7CeYXGlQ2mjCiHdie2eiajS0NHjyaF87wKzJfYliXX2EFxNYyylc_dVdHxL8mUaWULhW79h_pFFiJdGwReVe4MMMvTOsVY_AQAIX1-bbBYmDVq2PmhOuHjZpo30RW4CDPfAJDBd3MCwKNWLDYjss8Kd-KmYYLVfDv-8P5hya-rC7QBOH9DHf_tmUQeOE-1xpEWPp3g1KE_ycebfjRlt7FbubTBOcncEV6oLCmRIR4NxDPp8UMG8RsXiATGg7tNZqZNlOHrBn6cWXgtO0I9TIg_yqXC3-vkO2rxb6KQCsv5ITScHaMKxdRqrccFwxHVUON7pJ31eXhYkcD3WTNi1MhIRkWgap_rGxqOHWGpT0pjUqYuCHxICvd8hYh854HB9t3i1ILe8Fh2ZENM-duK5AkbeK8xGckuHyFDRXUmXqmVjndTnAxkDuvDu5letj80NtiI_FPfJUseWre5ov6QLCpCTZ92LKV51kC1Qu1qlBfa0uzZD1Qbj3jOsieQwZx-5pFjQg2UTJXyTT8zxxTdJaAQZksvlvxzTjwDoQ__sHy0]--></g></svg>