<?xml version='1.0' encoding='ASCII' standalone='yes'?>
<svg xmlns="http://www.w3.org/2000/svg" xmlns:xlink="http://www.w3.org/1999/xlink" version="1.1" width="1449.3333333333333px" viewBox="0 0 1449.3333333333333 862.6666666666666" height="862.6666666666666px">
  <g>
    <svg version="1.1" width="1449.3333333333333px" viewBox="0 0 1449.3333333333333 862.6666666666666" height="862.6666666666666px">
  <polygon fill="#f3f1f6" points="0,0 1449.3333333333333,0 1449.3333333333333,862.6666666666666 0,862.6666666666666"/><g>
    <g transform="translate(379.85595855957246, 86.26666666666664) scale(1 1) translate(0, 0) scale(3.9015099393716963 3.9015099393716963) "><sodipodi:namedview xmlns:sodipodi="http://sodipodi.sourceforge.net/DTD/sodipodi-0.dtd" xmlns:inkscape="http://www.inkscape.org/namespaces/inkscape" id="namedview7" pagecolor="#ffffff" bordercolor="#999999" borderopacity="1" inkscape:pageshadow="0" inkscape:pageopacity="0" inkscape:pagecheckerboard="0" inkscape:document-units="mm" showgrid="false" fit-margin-top="0" fit-margin-left="0" fit-margin-right="0" fit-margin-bottom="0" inkscape:zoom="0.64052329" inkscape:cx="130.36216" inkscape:cy="412.163" inkscape:window-width="1512" inkscape:window-height="916" inkscape:window-x="3840" inkscape:window-y="136" inkscape:window-maximized="0" inkscape:current-layer="layer1"/>
  <defs id="defs2">
    <clipPath clipPathUnits="userSpaceOnUse" id="clipPath23">
      <path d="M 0,568.156 H 579.236 V 0 H 0 Z" id="path21"/>
    </clipPath>
  </defs>
  <g xmlns:inkscape="http://www.inkscape.org/namespaces/inkscape" inkscape:label="Layer 1" inkscape:groupmode="layer" id="layer1" transform="translate(-16.541937,-55.305267)">
    <g id="g19" clip-path="url(#clipPath23)" transform="matrix(0.35277777,0,0,-0.35277777,0.01017023,243.73675)" style="opacity:0.2">
      <g id="g25" transform="translate(122.444,32.7195)">
        <path d="m 0,0 h -56.104 c -11,0 -19.898,9.123 -19.463,20.115 10.594,267.191 231.277,481.302 501.029,481.302 v -56.02 c 0,-10.98 -8.688,-19.892 -19.658,-20.393 C 180.29,414.697 0,228.005 0,0" style="fill:#6ead83;fill-opacity:1;fill-rule:nonzero;stroke:none" id="path27"/>
      </g>
      <g id="g29" transform="translate(273.7828,32.7195)">
        <path d="m 0,0 h -55.926 c -11.228,0 -20.091,9.482 -19.435,20.69 10.744,183.439 163.389,329.388 349.485,329.388 v -56.263 c 0,-10.709 -8.273,-19.617 -18.957,-20.35 C 112.819,263.696 0,144.774 0,0" style="fill:#6ead83;fill-opacity:1;fill-rule:nonzero;stroke:none" id="path31"/>
      </g>
      <g id="g33" transform="translate(425.7667,32.7195)">
        <path d="m 0,0 h -55.445 c -11.653,0 -20.604,10.17 -19.334,21.753 10.866,99.032 95.031,176.341 196.919,176.341 v -57.011 c 0,-10.046 -7.283,-18.755 -17.229,-20.165 C 45.688,112.522 0,61.497 0,0" style="fill:#6ead83;fill-opacity:1;fill-rule:nonzero;stroke:none" id="path35"/>
      </g>
    </g>
  </g>
</g>
    <svg width="1087pt" height="647pt" viewBox="0.00 0.00 1087.00 647.00">
<g id="graph0" class="graph" transform="scale(1 1) rotate(0) translate(4 643)">
<title>D</title>
<text text-anchor="start" x="20.5" y="-621.6" font-family="Times,serif" font-weight="bold" font-size="18.00">7.41 AD: &#220;bermittlung Pr&#252;fmitteilung f&#252;r die Bilanzkreissummenzeitreihe vom BKV an BIKO und &#220;NB</text>
<text text-anchor="start" x="371.5" y="-591.2" font-family="Times,serif" font-weight="bold" font-size="16.00">7.41.2 E_0025_Pr&#252;fmitteilung pr&#252;fen</text>
<!-- Start -->
<g id="node1" class="node">
<title>Start</title>
<polygon fill="#7a8da1" stroke="black" points="410.5,-541 235.5,-541 235.5,-497 410.5,-497 410.5,-541"/>
<text text-anchor="start" x="294.5" y="-521.8" font-family="Times,serif" font-weight="bold" font-size="14.00">E_0025</text>
<text text-anchor="start" x="249.5" y="-509.4" font-family="Times,serif" font-weight="bold" text-decoration="underline" font-size="12.00">Pr&#252;fende Rolle:</text>
<text text-anchor="start" x="355.5" y="-509.4" font-family="Times,serif" font-weight="bold" font-size="12.00"> BIKO</text>
</g>
<!-- 1 -->
<g id="node2" class="node">
<title>1</title>
<path fill="#7aab8a" stroke="black" d="M634,-460C634,-460 12,-460 12,-460 6,-460 0,-454 0,-448 0,-448 0,-436 0,-436 0,-430 6,-424 12,-424 12,-424 634,-424 634,-424 640,-424 646,-430 646,-436 646,-436 646,-448 646,-448 646,-454 640,-460 634,-460"/>
<text text-anchor="start" x="14" y="-439.3" font-family="Times,serif" font-weight="bold" font-size="14.00">1: </text>
<text text-anchor="start" x="34" y="-439.3" font-family="Times,serif" font-size="14.00">Erfolgt der Eingang der Pr&#252;fmitteilung nach Ablauf der Clearingfrist f&#252;r die KBKA?</text>
</g>
<!-- Start&#45;&gt;1 -->
<g id="edge1" class="edge">
<title>Start-&gt;1</title>
<path fill="none" stroke="black" d="M323,-496.71C323,-488.82 323,-479.75 323,-471.33"/>
<polygon fill="black" stroke="black" points="326.5,-471.57 323,-461.57 319.5,-471.57 326.5,-471.57"/>
</g>
<!-- A01 -->
<g id="node3" class="node">
<title>A01</title>
<polygon fill="#cfb986" stroke="black" points="377.5,-373 232.5,-373 232.5,-323 377.5,-323 377.5,-373"/>
<text text-anchor="start" x="289.5" y="-356.8" font-family="Times,serif" font-weight="bold" font-size="14.00">A01</text>
<text text-anchor="start" x="244.5" y="-344.4" font-family="Times,serif" text-decoration="underline" font-size="12.00">Hinweis:</text>
<text text-anchor="start" x="244.5" y="-332.4" font-family="Times,serif" font-size="12.00">Frist&#252;berschreitung</text>
</g>
<!-- 1&#45;&gt;A01 -->
<g id="edge2" class="edge">
<title>1-&gt;A01</title>
<path fill="none" stroke="black" d="M319.61,-423.7C317.43,-412.55 314.52,-397.67 311.87,-384.12"/>
<polygon fill="black" stroke="black" points="315.37,-383.8 310.02,-374.66 308.5,-385.14 315.37,-383.8"/>
<text text-anchor="middle" x="324" y="-394.8" font-family="Times,serif" font-size="14.00">Ja</text>
</g>
<!-- 2 -->
<g id="node4" class="node">
<title>2</title>
<path fill="#7aab8a" stroke="black" d="M860,-366C860,-366 408,-366 408,-366 402,-366 396,-360 396,-354 396,-354 396,-342 396,-342 396,-336 402,-330 408,-330 408,-330 860,-330 860,-330 866,-330 872,-336 872,-342 872,-342 872,-354 872,-354 872,-360 866,-366 860,-366"/>
<text text-anchor="start" x="410" y="-345.3" font-family="Times,serif" font-weight="bold" font-size="14.00">2: </text>
<text text-anchor="start" x="430" y="-345.3" font-family="Times,serif" font-size="14.00">Befindet sich der MaBiS-ZP auf der Aggregationsebene RZ?</text>
</g>
<!-- 1&#45;&gt;2 -->
<g id="edge3" class="edge">
<title>1-&gt;2</title>
<path fill="none" stroke="black" d="M381.86,-423.59C433.59,-408.28 508.96,-385.99 563.82,-369.76"/>
<polygon fill="black" stroke="black" points="564.8,-373.12 573.4,-366.93 562.82,-366.41 564.8,-373.12"/>
<text text-anchor="middle" x="505" y="-394.8" font-family="Times,serif" font-size="14.00">Nein</text>
</g>
<!-- 3 -->
<g id="node5" class="node">
<title>3</title>
<path fill="#7aab8a" stroke="black" d="M554.5,-265C554.5,-265 93.5,-265 93.5,-265 87.5,-265 81.5,-259 81.5,-253 81.5,-253 81.5,-231 81.5,-231 81.5,-225 87.5,-219 93.5,-219 93.5,-219 554.5,-219 554.5,-219 560.5,-219 566.5,-225 566.5,-231 566.5,-231 566.5,-253 566.5,-253 566.5,-259 560.5,-265 554.5,-265"/>
<text text-anchor="start" x="95.5" y="-245.8" font-family="Times,serif" font-weight="bold" font-size="14.00">3: </text>
<text text-anchor="start" x="115.5" y="-245.8" font-family="Times,serif" font-size="14.00">Hat der BKV f&#252;r den BK dieses MaBiS-ZP in diesem Bilanzie-</text>
<text text-anchor="start" x="95.5" y="-231.8" font-family="Times,serif" font-size="14.00">rungsmonat die Aggregationsebene RZ abbestellt?</text>
</g>
<!-- 2&#45;&gt;3 -->
<g id="edge4" class="edge">
<title>2-&gt;3</title>
<path fill="none" stroke="black" d="M582.11,-329.59C532.81,-313.05 458.02,-287.96 401.62,-269.04"/>
<polygon fill="black" stroke="black" points="402.99,-265.81 392.39,-265.95 400.76,-272.44 402.99,-265.81"/>
<text text-anchor="middle" x="524" y="-293.8" font-family="Times,serif" font-size="14.00">Nein</text>
</g>
<!-- 5 -->
<g id="node9" class="node">
<title>5</title>
<path fill="#7aab8a" stroke="black" d="M1067,-272C1067,-272 597,-272 597,-272 591,-272 585,-266 585,-260 585,-260 585,-224 585,-224 585,-218 591,-212 597,-212 597,-212 1067,-212 1067,-212 1073,-212 1079,-218 1079,-224 1079,-224 1079,-260 1079,-260 1079,-266 1073,-272 1067,-272"/>
<text text-anchor="start" x="599" y="-252.8" font-family="Times,serif" font-weight="bold" font-size="14.00">5: </text>
<text text-anchor="start" x="619" y="-252.8" font-family="Times,serif" font-size="14.00">Hat der BKV dem BIKO f&#252;r diesen Bilanzierungsmonat bereits</text>
<text text-anchor="start" x="599" y="-238.8" font-family="Times,serif" font-size="14.00">mitgeteilt, dass die weiteren Pr&#252;fungen auf Ebene des BG</text>
<text text-anchor="start" x="599" y="-224.8" font-family="Times,serif" font-size="14.00">stattfinden m&#252;ssen?</text>
</g>
<!-- 2&#45;&gt;5 -->
<g id="edge5" class="edge">
<title>2-&gt;5</title>
<path fill="none" stroke="black" d="M667.14,-329.59C693.98,-315.5 732.63,-295.19 765.77,-277.79"/>
<polygon fill="black" stroke="black" points="767.29,-280.94 774.52,-273.19 764.04,-274.75 767.29,-280.94"/>
<text text-anchor="middle" x="746" y="-293.8" font-family="Times,serif" font-size="14.00">Ja</text>
</g>
<!-- Ende -->
<g id="node6" class="node">
<title>Ende</title>
<polygon fill="#7a8da1" stroke="black" points="639.5,-43 574.5,-43 574.5,-7 639.5,-7 639.5,-43"/>
<text text-anchor="middle" x="607" y="-21.3" font-family="Times,serif" font-size="14.00">Ende</text>
</g>
<!-- 3&#45;&gt;Ende -->
<g id="edge7" class="edge">
<title>3-&gt;Ende</title>
<path fill="none" stroke="black" d="M485.96,-218.6C521.17,-206.66 555.24,-188.52 580,-161 606.13,-131.95 609.9,-84.95 609.21,-54.77"/>
<polygon fill="black" stroke="black" points="612.71,-54.7 608.78,-44.86 605.72,-55 612.71,-54.7"/>
<text text-anchor="middle" x="613" y="-127.3" font-family="Times,serif" font-size="14.00">Ja</text>
</g>
<!-- 4 -->
<g id="node7" class="node">
<title>4</title>
<path fill="#7aab8a" stroke="black" d="M559,-161C559,-161 89,-161 89,-161 83,-161 77,-155 77,-149 77,-149 77,-113 77,-113 77,-107 83,-101 89,-101 89,-101 559,-101 559,-101 565,-101 571,-107 571,-113 571,-113 571,-149 571,-149 571,-155 565,-161 559,-161"/>
<text text-anchor="start" x="91" y="-141.8" font-family="Times,serif" font-weight="bold" font-size="14.00">4: </text>
<text text-anchor="start" x="111" y="-141.8" font-family="Times,serif" font-size="14.00">Hat der BKV dem BIKO f&#252;r diesen Bilanzierungsmonat bereits</text>
<text text-anchor="start" x="91" y="-127.8" font-family="Times,serif" font-size="14.00">mitgeteilt, dass die weiteren Pr&#252;fungen auf Ebene des BG</text>
<text text-anchor="start" x="91" y="-113.8" font-family="Times,serif" font-size="14.00">stattfinden m&#252;ssen?</text>
</g>
<!-- 3&#45;&gt;4 -->
<g id="edge6" class="edge">
<title>3-&gt;4</title>
<path fill="none" stroke="black" d="M324,-218.68C324,-205.48 324,-188.35 324,-172.81"/>
<polygon fill="black" stroke="black" points="327.5,-172.84 324,-162.84 320.5,-172.84 327.5,-172.84"/>
<text text-anchor="middle" x="341" y="-182.8" font-family="Times,serif" font-size="14.00">Nein</text>
</g>
<!-- 4&#45;&gt;Ende -->
<g id="edge9" class="edge">
<title>4-&gt;Ende</title>
<path fill="none" stroke="black" d="M403.96,-100.61C455.73,-81.59 521.14,-57.55 563.51,-41.98"/>
<polygon fill="black" stroke="black" points="564.69,-45.28 572.87,-38.54 562.27,-38.71 564.69,-45.28"/>
<text text-anchor="middle" x="498" y="-71.8" font-family="Times,serif" font-size="14.00">Ja</text>
</g>
<!-- A02 -->
<g id="node8" class="node">
<title>A02</title>
<polygon fill="#cfb986" stroke="black" points="430.5,-50 217.5,-50 217.5,0 430.5,0 430.5,-50"/>
<text text-anchor="start" x="308.5" y="-33.8" font-family="Times,serif" font-weight="bold" font-size="14.00">A02</text>
<text text-anchor="start" x="229.5" y="-21.4" font-family="Times,serif" text-decoration="underline" font-size="12.00">Hinweis:</text>
<text text-anchor="start" x="229.5" y="-9.4" font-family="Times,serif" font-size="12.00">Falsche Aggregationsebene BG</text>
</g>
<!-- 4&#45;&gt;A02 -->
<g id="edge8" class="edge">
<title>4-&gt;A02</title>
<path fill="none" stroke="black" d="M324,-100.75C324,-88.61 324,-74.4 324,-61.66"/>
<polygon fill="black" stroke="black" points="327.5,-61.97 324,-51.97 320.5,-61.97 327.5,-61.97"/>
<text text-anchor="middle" x="341" y="-71.8" font-family="Times,serif" font-size="14.00">Nein</text>
</g>
<!-- 5&#45;&gt;Ende -->
<g id="edge11" class="edge">
<title>5-&gt;Ende</title>
<path fill="none" stroke="black" d="M757.95,-211.55C732.11,-198.76 704.28,-181.86 683,-161 651.49,-130.11 629.16,-83.38 617.18,-53.79"/>
<polygon fill="black" stroke="black" points="620.55,-52.8 613.65,-44.76 614.03,-55.35 620.55,-52.8"/>
<text text-anchor="middle" x="700" y="-127.3" font-family="Times,serif" font-size="14.00">Nein</text>
</g>
<!-- A03 -->
<g id="node10" class="node">
<title>A03</title>
<polygon fill="#cfb986" stroke="black" points="937.5,-156 726.5,-156 726.5,-106 937.5,-106 937.5,-156"/>
<text text-anchor="start" x="816.5" y="-139.8" font-family="Times,serif" font-weight="bold" font-size="14.00">A03</text>
<text text-anchor="start" x="738.5" y="-127.4" font-family="Times,serif" text-decoration="underline" font-size="12.00">Hinweis:</text>
<text text-anchor="start" x="738.5" y="-115.4" font-family="Times,serif" font-size="12.00">Falsche Aggregationsebene RZ</text>
</g>
<!-- 5&#45;&gt;A03 -->
<g id="edge10" class="edge">
<title>5-&gt;A03</title>
<path fill="none" stroke="black" d="M832,-211.5C832,-198.01 832,-181.9 832,-167.72"/>
<polygon fill="black" stroke="black" points="835.5,-167.88 832,-157.88 828.5,-167.88 835.5,-167.88"/>
<text text-anchor="middle" x="839" y="-182.8" font-family="Times,serif" font-size="14.00">Ja</text>
</g>
</g>
</svg>
  </g>
</svg>
  </g>
</svg>
