<?xml version='1.0' encoding='ASCII' standalone='yes'?>
<svg xmlns="http://www.w3.org/2000/svg" xmlns:xlink="http://www.w3.org/1999/xlink" version="1.1" width="1406.6666666666667px" viewBox="0 0 1406.6666666666667 566.6666666666666" height="566.6666666666666px">
  <g>
    <svg version="1.1" width="1406.6666666666667px" viewBox="0 0 1406.6666666666667 566.6666666666666" height="566.6666666666666px">
  <polygon fill="#f3f1f6" points="0,0 1406.6666666666667,0 1406.6666666666667,566.6666666666666 0,566.6666666666666"/><g>
    <g transform="translate(476.8348001872514, 56.66666666666665) scale(1 1) translate(0, 0) scale(2.562815647964406 2.562815647964406) "><sodipodi:namedview xmlns:sodipodi="http://sodipodi.sourceforge.net/DTD/sodipodi-0.dtd" xmlns:inkscape="http://www.inkscape.org/namespaces/inkscape" id="namedview7" pagecolor="#ffffff" bordercolor="#999999" borderopacity="1" inkscape:pageshadow="0" inkscape:pageopacity="0" inkscape:pagecheckerboard="0" inkscape:document-units="mm" showgrid="false" fit-margin-top="0" fit-margin-left="0" fit-margin-right="0" fit-margin-bottom="0" inkscape:zoom="0.64052329" inkscape:cx="130.36216" inkscape:cy="412.163" inkscape:window-width="1512" inkscape:window-height="916" inkscape:window-x="3840" inkscape:window-y="136" inkscape:window-maximized="0" inkscape:current-layer="layer1"/>
  <defs id="defs2">
    <clipPath clipPathUnits="userSpaceOnUse" id="clipPath23">
      <path d="M 0,568.156 H 579.236 V 0 H 0 Z" id="path21"/>
    </clipPath>
  </defs>
  <g xmlns:inkscape="http://www.inkscape.org/namespaces/inkscape" inkscape:label="Layer 1" inkscape:groupmode="layer" id="layer1" transform="translate(-16.541937,-55.305267)">
    <g id="g19" clip-path="url(#clipPath23)" transform="matrix(0.35277777,0,0,-0.35277777,0.01017023,243.73675)" style="opacity:0.2">
      <g id="g25" transform="translate(122.444,32.7195)">
        <path d="m 0,0 h -56.104 c -11,0 -19.898,9.123 -19.463,20.115 10.594,267.191 231.277,481.302 501.029,481.302 v -56.02 c 0,-10.98 -8.688,-19.892 -19.658,-20.393 C 180.29,414.697 0,228.005 0,0" style="fill:#6ead83;fill-opacity:1;fill-rule:nonzero;stroke:none" id="path27"/>
      </g>
      <g id="g29" transform="translate(273.7828,32.7195)">
        <path d="m 0,0 h -55.926 c -11.228,0 -20.091,9.482 -19.435,20.69 10.744,183.439 163.389,329.388 349.485,329.388 v -56.263 c 0,-10.709 -8.273,-19.617 -18.957,-20.35 C 112.819,263.696 0,144.774 0,0" style="fill:#6ead83;fill-opacity:1;fill-rule:nonzero;stroke:none" id="path31"/>
      </g>
      <g id="g33" transform="translate(425.7667,32.7195)">
        <path d="m 0,0 h -55.445 c -11.653,0 -20.604,10.17 -19.334,21.753 10.866,99.032 95.031,176.341 196.919,176.341 v -57.011 c 0,-10.046 -7.283,-18.755 -17.229,-20.165 C 45.688,112.522 0,61.497 0,0" style="fill:#6ead83;fill-opacity:1;fill-rule:nonzero;stroke:none" id="path35"/>
      </g>
    </g>
  </g>
</g>
    <svg width="1055pt" height="425pt" viewBox="0.00 0.00 1055.00 425.00">
<!--
                curl - -request POST                    - -url https://kroki.io/                    - -header 'Content-Type: application/json'                    - -data 'digraph D {
    labelloc="t";
    label=<<B><FONT POINT-SIZE="18">7.39 AD: Bestellung der Aggregationsebene der Bilanzkreissummenzeitreihe auf Ebene der Regelzone</FONT></B><BR/><BR/><B><FONT POINT-SIZE="16">7.39.1 E_0003_Bestellung der Aggregationsebene RZ pr&#252;fen</FONT></B><BR/><BR/><BR/><BR/>>;
    "Start" [margin="0.2,0.12", shape=box, style=filled, fillcolor="#7a8da1", label=<<B>E_0003</B><BR align="center"/><FONT point-size="12"><B><U>Pr&#252;fende Rolle:</U> &#220;NB</B></FONT><BR align="center"/>>];
    "1" [margin="0.2,0.12", shape=box, style="filled,rounded", fillcolor="#7aab8a", label=<<B>1: </B>Erfolgt der Eingang der Bestellung fristgerecht?<BR align="left"/>>];
    "A01" [margin="0.17,0.08", shape=box, style=filled, fillcolor="#cfb986", label=<<B>A01</B><BR align="center"/><FONT point-size="12"><U>Hinweis:</U><BR align="left"/>Frist&#252;berschreitung<BR align="left"/></FONT>>];
    "2" [margin="0.2,0.12", shape=box, style="filled,rounded", fillcolor="#7aab8a", label=<<B>2: </B>Erfolgt die Bestellung zum Monatsersten 00:00 Uhr?<BR align="left"/>>];
    "A02" [margin="0.17,0.08", shape=box, style=filled, fillcolor="#cfb986", label=<<B>A02</B><BR align="center"/><FONT point-size="12"><U>Hinweis:</U><BR align="left"/>Gew&#228;hlter Zeitpunkt nicht zul&#228;ssig<BR align="left"/></FONT>>];
    "Ende" [margin="0.2,0.12", shape=box, style=filled, fillcolor="#7a8da1", label="Ende"];

    "Start" -> "1";
    "1" -> "A01" [label="Nein"];
    "1" -> "2" [label="Ja"];
    "2" -> "A02" [label="Nein"];
    "2" -> "Ende" [label="Ja"];

    bgcolor="transparent";
}'
                --><g id="graph0" class="graph" transform="scale(1 1) rotate(0) translate(4 421)">
<title>D</title>
<text text-anchor="start" x="8" y="-399.6" font-family="Times,serif" font-weight="bold" font-size="18.00">7.39 AD: Bestellung der Aggregationsebene der Bilanzkreissummenzeitreihe auf Ebene der Regelzone</text>
<text text-anchor="start" x="250.5" y="-369.2" font-family="Times,serif" font-weight="bold" font-size="16.00">7.39.1 E_0003_Bestellung der Aggregationsebene RZ pr&#252;fen</text>
<!-- Start -->
<g id="node1" class="node">
<title>Start</title>
<polygon fill="#7a8da1" stroke="black" points="493.5,-319 322.5,-319 322.5,-275 493.5,-275 493.5,-319"/>
<text text-anchor="start" x="379.5" y="-299.8" font-family="Times,serif" font-weight="bold" font-size="14.00">E_0003</text>
<text text-anchor="start" x="336.5" y="-287.4" font-family="Times,serif" font-weight="bold" text-decoration="underline" font-size="12.00">Pr&#252;fende Rolle:</text>
<text text-anchor="start" x="442.5" y="-287.4" font-family="Times,serif" font-weight="bold" font-size="12.00"> &#220;NB</text>
</g>
<!-- 1 -->
<g id="node2" class="node">
<title>1</title>
<path fill="#7aab8a" stroke="black" d="M594.5,-238C594.5,-238 221.5,-238 221.5,-238 215.5,-238 209.5,-232 209.5,-226 209.5,-226 209.5,-214 209.5,-214 209.5,-208 215.5,-202 221.5,-202 221.5,-202 594.5,-202 594.5,-202 600.5,-202 606.5,-208 606.5,-214 606.5,-214 606.5,-226 606.5,-226 606.5,-232 600.5,-238 594.5,-238"/>
<text text-anchor="start" x="223.5" y="-217.3" font-family="Times,serif" font-weight="bold" font-size="14.00">1: </text>
<text text-anchor="start" x="243.5" y="-217.3" font-family="Times,serif" font-size="14.00">Erfolgt der Eingang der Bestellung fristgerecht?</text>
</g>
<!-- Start&#45;&gt;1 -->
<g id="edge1" class="edge">
<title>Start-&gt;1</title>
<path fill="none" stroke="black" d="M408,-274.71C408,-266.82 408,-257.75 408,-249.33"/>
<polygon fill="black" stroke="black" points="411.5,-249.57 408,-239.57 404.5,-249.57 411.5,-249.57"/>
</g>
<!-- A01 -->
<g id="node3" class="node">
<title>A01</title>
<polygon fill="#cfb986" stroke="black" points="390.5,-151 245.5,-151 245.5,-101 390.5,-101 390.5,-151"/>
<text text-anchor="start" x="302.5" y="-134.8" font-family="Times,serif" font-weight="bold" font-size="14.00">A01</text>
<text text-anchor="start" x="257.5" y="-122.4" font-family="Times,serif" text-decoration="underline" font-size="12.00">Hinweis:</text>
<text text-anchor="start" x="257.5" y="-110.4" font-family="Times,serif" font-size="12.00">Frist&#252;berschreitung</text>
</g>
<!-- 1&#45;&gt;A01 -->
<g id="edge2" class="edge">
<title>1-&gt;A01</title>
<path fill="none" stroke="black" d="M391.07,-201.7C379.41,-189.77 363.56,-173.57 349.6,-159.3"/>
<polygon fill="black" stroke="black" points="352.2,-156.95 342.7,-152.25 347.19,-161.85 352.2,-156.95"/>
<text text-anchor="middle" x="391" y="-172.8" font-family="Times,serif" font-size="14.00">Nein</text>
</g>
<!-- 2 -->
<g id="node4" class="node">
<title>2</title>
<path fill="#7aab8a" stroke="black" d="M825.5,-144C825.5,-144 420.5,-144 420.5,-144 414.5,-144 408.5,-138 408.5,-132 408.5,-132 408.5,-120 408.5,-120 408.5,-114 414.5,-108 420.5,-108 420.5,-108 825.5,-108 825.5,-108 831.5,-108 837.5,-114 837.5,-120 837.5,-120 837.5,-132 837.5,-132 837.5,-138 831.5,-144 825.5,-144"/>
<text text-anchor="start" x="422.5" y="-123.3" font-family="Times,serif" font-weight="bold" font-size="14.00">2: </text>
<text text-anchor="start" x="442.5" y="-123.3" font-family="Times,serif" font-size="14.00">Erfolgt die Bestellung zum Monatsersten 00:00 Uhr?</text>
</g>
<!-- 1&#45;&gt;2 -->
<g id="edge3" class="edge">
<title>1-&gt;2</title>
<path fill="none" stroke="black" d="M448.69,-201.59C483.63,-186.64 534.18,-165.01 571.85,-148.89"/>
<polygon fill="black" stroke="black" points="572.9,-152.25 580.72,-145.09 570.15,-145.81 572.9,-152.25"/>
<text text-anchor="middle" x="528" y="-172.8" font-family="Times,serif" font-size="14.00">Ja</text>
</g>
<!-- A02 -->
<g id="node5" class="node">
<title>A02</title>
<polygon fill="#cfb986" stroke="black" points="656.5,-50 421.5,-50 421.5,0 656.5,0 656.5,-50"/>
<text text-anchor="start" x="523.5" y="-33.8" font-family="Times,serif" font-weight="bold" font-size="14.00">A02</text>
<text text-anchor="start" x="433.5" y="-21.4" font-family="Times,serif" text-decoration="underline" font-size="12.00">Hinweis:</text>
<text text-anchor="start" x="433.5" y="-9.4" font-family="Times,serif" font-size="12.00">Gew&#228;hlter Zeitpunkt nicht zul&#228;ssig</text>
</g>
<!-- 2&#45;&gt;A02 -->
<g id="edge4" class="edge">
<title>2-&gt;A02</title>
<path fill="none" stroke="black" d="M608.37,-107.76C597.03,-94.39 580.97,-75.46 567.15,-59.18"/>
<polygon fill="black" stroke="black" points="569.88,-56.98 560.74,-51.62 564.54,-61.51 569.88,-56.98"/>
<text text-anchor="middle" x="603" y="-71.8" font-family="Times,serif" font-size="14.00">Nein</text>
</g>
<!-- Ende -->
<g id="node6" class="node">
<title>Ende</title>
<polygon fill="#7a8da1" stroke="black" points="739.5,-43 674.5,-43 674.5,-7 739.5,-7 739.5,-43"/>
<text text-anchor="middle" x="707" y="-21.3" font-family="Times,serif" font-size="14.00">Ende</text>
</g>
<!-- 2&#45;&gt;Ende -->
<g id="edge5" class="edge">
<title>2-&gt;Ende</title>
<path fill="none" stroke="black" d="M637.63,-107.76C650.68,-92.38 669.97,-69.64 684.9,-52.04"/>
<polygon fill="black" stroke="black" points="687.47,-54.42 691.27,-44.53 682.14,-49.89 687.47,-54.42"/>
<text text-anchor="middle" x="677" y="-71.8" font-family="Times,serif" font-size="14.00">Ja</text>
</g>
</g>
</svg>
  </g>
</svg>
  </g>
</svg>
